<svg xmlns="http://www.w3.org/2000/svg" width="209" height="34" fill="none"><path fill="#2F81F7" d="M115.408 29.532c-1.848 0-3.407-.29-4.676-.868-1.269-.597-2.231-1.4-2.884-2.408-.653-1.027-.98-2.203-.98-3.528h4.452c0 .523.14 1.008.42 1.456.299.448.747.812 1.344 1.092.597.261 1.372.392 2.324.392.859 0 1.577-.112 2.156-.336.579-.224 1.017-.532 1.316-.924.299-.41.448-.877.448-1.4 0-.653-.28-1.167-.84-1.54-.56-.392-1.465-.644-2.716-.756l-1.54-.14c-2.035-.168-3.659-.803-4.872-1.904s-1.82-2.557-1.82-4.368c0-1.307.308-2.436.924-3.388.635-.952 1.512-1.68 2.632-2.184 1.12-.523 2.445-.784 3.976-.784 1.605 0 2.977.28 4.116.84 1.157.541 2.044 1.316 2.66 2.324.616.99.924 2.156.924 3.5h-4.48c0-.504-.121-.961-.364-1.372-.243-.43-.607-.775-1.092-1.036-.467-.261-1.055-.392-1.764-.392-.672 0-1.241.112-1.708.336-.448.224-.784.532-1.008.924a2.35 2.35 0 0 0-.336 1.232c0 .579.205 1.083.616 1.512.411.43 1.083.681 2.016.756l1.568.14c1.493.13 2.809.457 3.948.98 1.139.504 2.025 1.204 2.66 2.1.653.877.98 1.95.98 3.22 0 1.307-.345 2.455-1.036 3.444-.672.97-1.633 1.727-2.884 2.268-1.251.541-2.744.812-4.48.812ZM133.748 29.532c-1.307 0-2.464-.224-3.472-.672-.99-.448-1.82-1.045-2.492-1.792a8.577 8.577 0 0 1-1.512-2.548 8.69 8.69 0 0 1-.504-2.912v-.56c0-1.027.168-2.007.504-2.94a8.134 8.134 0 0 1 1.512-2.548c.653-.747 1.465-1.335 2.436-1.764.989-.448 2.109-.672 3.36-.672 1.642 0 3.024.373 4.144 1.12a7.187 7.187 0 0 1 2.604 2.884c.597 1.176.896 2.464.896 3.864v1.512h-13.58v-2.548h10.864l-1.456 1.176c0-.915-.131-1.699-.392-2.352-.262-.653-.654-1.148-1.176-1.484-.504-.355-1.139-.532-1.904-.532-.784 0-1.447.177-1.988.532-.542.355-.952.877-1.232 1.568-.28.672-.42 1.503-.42 2.492 0 .915.13 1.717.392 2.408.261.672.672 1.195 1.232 1.568.56.373 1.288.56 2.184.56.821 0 1.493-.159 2.016-.476.522-.317.877-.71 1.064-1.176h4.116a6.473 6.473 0 0 1-1.316 2.744 6.68 6.68 0 0 1-2.464 1.876c-.99.448-2.128.672-3.416.672ZM153.46 29v-4.536h-.756v-4.928c0-.784-.186-1.372-.56-1.764-.373-.392-.97-.588-1.792-.588a84.08 84.08 0 0 0-3.696.112c-.709.037-1.353.075-1.932.112v-3.78c.43-.037.934-.075 1.512-.112a57.4 57.4 0 0 1 3.528-.112c1.568 0 2.884.224 3.948.672 1.083.448 1.904 1.13 2.464 2.044.56.896.84 2.053.84 3.472V29h-3.556Zm-4.9.392c-1.101 0-2.072-.196-2.912-.588-.821-.392-1.465-.952-1.932-1.68-.466-.747-.7-1.633-.7-2.66 0-1.12.29-2.035.868-2.744.579-.728 1.391-1.26 2.436-1.596 1.046-.355 2.25-.532 3.612-.532h3.276v2.492h-3.304c-.784 0-1.39.196-1.82.588-.41.373-.616.887-.616 1.54 0 .616.206 1.12.616 1.512.43.373 1.036.56 1.82.56.504 0 .952-.084 1.344-.252.411-.187.747-.495 1.008-.924.262-.43.411-1.027.448-1.792l1.064 1.12c-.093 1.064-.354 1.96-.784 2.688a4.178 4.178 0 0 1-1.736 1.68c-.728.392-1.624.588-2.688.588ZM160.817 29V13.656h3.556v6.58h-.084c0-2.165.458-3.836 1.372-5.012.934-1.176 2.278-1.764 4.032-1.764h.588v3.864h-1.12c-1.232 0-2.184.336-2.856 1.008-.672.653-1.008 1.605-1.008 2.856V29h-4.48ZM179.409 29.532c-1.326 0-2.483-.215-3.472-.644-.971-.448-1.783-1.045-2.436-1.792a7.403 7.403 0 0 1-1.456-2.52 9.218 9.218 0 0 1-.476-2.94v-.532c0-1.045.168-2.044.504-2.996.336-.97.83-1.83 1.484-2.576.653-.747 1.465-1.335 2.436-1.764.989-.43 2.118-.644 3.388-.644 1.381 0 2.604.27 3.668.812a6.382 6.382 0 0 1 2.548 2.212c.634.952.989 2.044 1.064 3.276h-4.396a2.744 2.744 0 0 0-.84-1.736c-.467-.485-1.148-.728-2.044-.728-.747 0-1.372.187-1.876.56-.486.373-.85.887-1.092 1.54-.243.653-.364 1.428-.364 2.324 0 .821.112 1.568.336 2.24.224.653.578 1.167 1.064 1.54.504.355 1.157.532 1.96.532.597 0 1.101-.103 1.512-.308a2.621 2.621 0 0 0 1.008-.896c.261-.392.42-.84.476-1.344h4.368c-.056 1.27-.411 2.39-1.064 3.36-.654.952-1.522 1.699-2.604 2.24-1.083.523-2.315.784-3.696.784ZM189.638 29V8.56h4.48v11.788h-.672c0-1.55.196-2.856.588-3.92.392-1.064.97-1.867 1.736-2.408.765-.56 1.726-.84 2.884-.84h.196c1.698 0 2.996.607 3.892 1.82.896 1.195 1.344 2.95 1.344 5.264V29h-4.48v-9.016c0-.84-.252-1.512-.756-2.016-.486-.523-1.13-.784-1.932-.784-.84 0-1.522.27-2.044.812-.504.541-.756 1.26-.756 2.156V29h-4.48Z"/><path fill="#E6EDF3" d="M13.984 29.532c-1.83 0-3.425-.299-4.788-.896-1.363-.616-2.492-1.437-3.388-2.464a10.433 10.433 0 0 1-1.96-3.416 11.493 11.493 0 0 1-.644-3.752v-.616c0-1.288.215-2.548.644-3.78a10.44 10.44 0 0 1 1.932-3.36c.877-1.008 1.96-1.81 3.248-2.408 1.307-.597 2.81-.896 4.508-.896 1.848 0 3.481.345 4.9 1.036 1.419.672 2.557 1.615 3.416 2.828.859 1.195 1.353 2.585 1.484 4.172h-4.592a3.79 3.79 0 0 0-.896-1.96c-.467-.56-1.073-.999-1.82-1.316-.728-.317-1.559-.476-2.492-.476-.896 0-1.699.159-2.408.476a5.268 5.268 0 0 0-1.792 1.344c-.485.579-.859 1.27-1.12 2.072-.243.784-.364 1.652-.364 2.604 0 .99.13 1.895.392 2.716.28.803.681 1.503 1.204 2.1a5.293 5.293 0 0 0 1.932 1.344c.784.317 1.652.476 2.604.476 1.27 0 2.37-.261 3.304-.784.933-.523 1.605-1.213 2.016-2.072l-.56 3.136v-4.872h4.228v4.368c-.877 1.419-2.09 2.51-3.64 3.276-1.53.747-3.313 1.12-5.348 1.12Zm-.588-7.868V18.36h11.256v3.304H13.396ZM28.096 29V13.656h4.48V29h-4.48Zm-2.044-12.04v-3.304h6.524v3.304h-6.524Zm3.78-4.816c-.84 0-1.465-.215-1.876-.644-.392-.448-.588-1.008-.588-1.68 0-.69.196-1.25.588-1.68.41-.448 1.036-.672 1.876-.672.84 0 1.456.224 1.848.672.41.43.616.99.616 1.68 0 .672-.205 1.232-.616 1.68-.392.43-1.008.644-1.848.644ZM43.692 29.196c-1.55 0-2.8-.187-3.752-.56-.952-.392-1.652-1.036-2.1-1.932-.43-.915-.644-2.147-.644-3.696V9.512h4.172v13.664c0 .728.186 1.288.56 1.68.392.373.943.56 1.652.56h2.268v3.78h-2.156Zm-8.82-12.264v-3.276h10.976v3.276H34.872ZM62.328 29V8.56h4.592V29h-4.592Zm-13.216 0V8.56h4.592V29h-4.592Zm3.78-8.26v-4.032H63.14v4.032H52.892ZM76.435 29.476c-1.773 0-3.136-.57-4.088-1.708-.952-1.157-1.428-2.893-1.428-5.208v-8.904h4.48v9.128c0 .821.233 1.475.7 1.96.467.485 1.092.728 1.876.728.803 0 1.456-.252 1.96-.756s.756-1.185.756-2.044v-9.016h4.48V29h-3.556v-6.468h.308c0 1.55-.205 2.847-.616 3.892-.392 1.027-.98 1.792-1.764 2.296-.784.504-1.755.756-2.912.756h-.196ZM98.738 29.504c-1.25 0-2.352-.261-3.304-.784-.952-.541-1.699-1.316-2.24-2.324-.541-1.008-.83-2.24-.868-3.696h.532V29h-3.556V8.56h4.48v10.388l-1.064 1.344c.056-1.55.345-2.847.868-3.892.541-1.064 1.279-1.857 2.212-2.38.933-.541 1.997-.812 3.192-.812 1.045 0 1.988.196 2.828.588a5.892 5.892 0 0 1 2.184 1.624c.597.69 1.054 1.512 1.372 2.464.336.952.504 1.988.504 3.108v.616c0 1.12-.168 2.156-.504 3.108a7.328 7.328 0 0 1-1.428 2.52 6.682 6.682 0 0 1-2.24 1.68c-.878.392-1.867.588-2.968.588Zm-1.176-3.752c.765 0 1.428-.187 1.988-.56.578-.373 1.026-.896 1.344-1.568.317-.69.476-1.465.476-2.324 0-.877-.159-1.643-.476-2.296-.318-.653-.766-1.157-1.344-1.512-.56-.373-1.223-.56-1.988-.56a4 4 0 0 0-1.904.476 3.8 3.8 0 0 0-1.456 1.372c-.355.579-.532 1.288-.532 2.128v1.036c0 .803.186 1.493.56 2.072.392.56.886.99 1.484 1.288a4.085 4.085 0 0 0 1.848.448Z"/></svg>